<svg xmlns="http://www.w3.org/2000/svg" xmlns:xlink="http://www.w3.org/1999/xlink" width="170" height="55" viewBox="0 0 170 55">
  <defs>
    <linearGradient id="linear-gradient" y1="0.5" x2="1" y2="0.5" gradientUnits="objectBoundingBox">
      <stop offset="0" stop-color="#63be6b"/>
      <stop offset="0.506" stop-color="#5bbc6a"/>
      <stop offset="1" stop-color="#4ab96a"/>
    </linearGradient>
    <linearGradient id="linear-gradient-2" y1="0.5" x2="0.999" y2="0.5" gradientUnits="objectBoundingBox">
      <stop offset="0" stop-color="#3ec6f2"/>
      <stop offset="1" stop-color="#45afe3"/>
    </linearGradient>
    <linearGradient id="linear-gradient-3" y1="0.5" x2="1" y2="0.5" gradientUnits="objectBoundingBox">
      <stop offset="0" stop-color="#faa51a"/>
      <stop offset="0.387" stop-color="#fab716"/>
      <stop offset="0.741" stop-color="#fac412"/>
      <stop offset="1" stop-color="#fac80f"/>
    </linearGradient>
    <linearGradient id="linear-gradient-4" y1="0.5" x2="1" y2="0.5" gradientUnits="objectBoundingBox">
      <stop offset="0" stop-color="#ec3b50"/>
      <stop offset="1" stop-color="#e7515b"/>
    </linearGradient>
  </defs>
  <g id="App_atore" data-name="App atore" transform="translate(-1.025 5.489)">
    <rect id="Rectangle_76" data-name="Rectangle 76" width="170" height="55" rx="10" transform="translate(1.025 -5.489)" fill="#141414"/>
    <g id="Groupe_768" data-name="Groupe 768" transform="translate(9 -5.651)">
      <g id="Play-Store" transform="translate(12.191 4.336)">
        <g id="Google-play" transform="translate(35.191 18.905)">
          <path id="Fill-1_1_" d="M577.518,63.278l-.989.936c-.232.125-.454.276-.677.374a4.776,4.776,0,0,1-2,.392,4.393,4.393,0,0,1-2.744-.811,5.383,5.383,0,0,1-2.1-4.375A4.692,4.692,0,0,1,573.732,55a4,4,0,0,1,2.121.579,3.426,3.426,0,0,1,1.443,2.058l-4.847,1.969-1.586.125c.517,2.638,2.29,4.17,4.25,4.17a5.082,5.082,0,0,0,2.37-.65S577.616,63.18,577.518,63.278Zm-2.958-5.293c.392-.143.588-.267.588-.561a2.044,2.044,0,0,0-2.023-1.8c-.811,0-2.344.65-2.344,2.9,0,.356.045.731.062,1.1Z" transform="translate(-518.299 -50.099)" fill="#fff"/>
          <path id="Fill-2" d="M514.564,13.063c0,.8.143.927.82.989.356.045.7.062,1.051.1l-.757.454h-3.627c.472-.624.561-.686.561-1.1v-.463L512.6.748H511L512.542,0h2.94a1.42,1.42,0,0,0-.909,1.319l-.009,11.744" transform="translate(-465.467)" fill="#fff"/>
          <path id="Fill-3" d="M409.563,58.748a3.388,3.388,0,0,1-.267,5.729,1.463,1.463,0,0,0-.579,1.016,1.15,1.15,0,0,0,.535.891l.74.579c.9.766,1.72,1.47,1.72,2.9,0,1.942-1.871,3.912-5.4,3.912-2.976,0-4.411-1.426-4.411-2.958a2.959,2.959,0,0,1,1.586-2.522,8.8,8.8,0,0,1,3.921-.953,2.2,2.2,0,0,1-.615-1.408,1.974,1.974,0,0,1,.2-.811c-.223.018-.454.045-.659.045a3.259,3.259,0,0,1-3.4-3.252,3.7,3.7,0,0,1,1.319-2.771A5.566,5.566,0,0,1,407.923,58h4.232l-1.319.748Zm-1.444,9.169a2.6,2.6,0,0,0-.472-.027,8.187,8.187,0,0,0-2.174.339,2.362,2.362,0,0,0-1.782,2.174c0,1.5,1.426,2.575,3.644,2.575,1.987,0,3.038-.971,3.038-2.272C410.374,69.619,409.688,69.049,408.119,67.917Zm.579-3.992a2.089,2.089,0,0,0,.517-1.506c0-1.488-.873-3.8-2.575-3.8a1.91,1.91,0,0,0-1.435.686,2.379,2.379,0,0,0-.445,1.524c0,1.381.8,3.671,2.557,3.671A2.056,2.056,0,0,0,408.7,63.925Z" transform="translate(-366.089 -52.832)" fill="#fff"/>
          <path id="Fill-4_1_" d="M293.017,64.98A4.884,4.884,0,0,1,288,60.061,5.128,5.128,0,0,1,293.328,55a4.846,4.846,0,0,1,4.919,4.919A5.057,5.057,0,0,1,293.017,64.98Zm2.557-1.684a3.8,3.8,0,0,0,.624-2.317c0-1.844-.864-5.355-3.431-5.355a2.852,2.852,0,0,0-1.862.713,3.194,3.194,0,0,0-.953,2.548c0,2.067,1.007,5.471,3.511,5.471A2.613,2.613,0,0,0,295.574,63.3Z" transform="translate(-262.338 -50.099)" fill="#fff"/>
          <path id="Fill-5" d="M170.017,64.98A4.884,4.884,0,0,1,165,60.061,5.128,5.128,0,0,1,170.328,55a4.846,4.846,0,0,1,4.919,4.919A5.057,5.057,0,0,1,170.017,64.98Zm2.557-1.684a3.8,3.8,0,0,0,.624-2.317c0-1.844-.873-5.355-3.431-5.355a2.835,2.835,0,0,0-1.862.713,3.164,3.164,0,0,0-.953,2.548c0,2.067,1.016,5.471,3.511,5.471A2.612,2.612,0,0,0,172.574,63.3Z" transform="translate(-150.298 -50.099)" fill="#fff"/>
          <path id="Fill-6" d="M13.348,23.375l-2.771.642a20.127,20.127,0,0,1-3.2.339C2.032,24.346,0,20.39,0,17.289,0,13.511,2.887,10,7.823,10a11,11,0,0,1,2.967.41,7.527,7.527,0,0,1,2.557,1.212l-1.613,1.542-.677.151.481-.775A5.532,5.532,0,0,0,7.4,10.7c-3.056,0-5.364,2.335-5.364,5.747a6.867,6.867,0,0,0,6.852,7.111,5.792,5.792,0,0,0,2.459-.481V19.935L8.42,20.1l1.55-.838h4.108l-.5.49a.475.475,0,0,0-.2.312c-.018.178-.036.74-.036.945v2.37" transform="translate(0 -9.109)" fill="#fff"/>
          <path id="Fill-7_1_" d="M721.042,63.367v5.266H720V55.241h1.042v1.524A4.133,4.133,0,0,1,724.4,55c2.584,0,4.331,1.969,4.331,5.079,0,3.092-1.738,5.1-4.331,5.1A4.136,4.136,0,0,1,721.042,63.367Zm6.62-3.208c0-2.37-1.221-4.179-3.395-4.179a4.152,4.152,0,0,0-3.2,2v4.33a4.188,4.188,0,0,0,3.2,2.04C726.442,64.356,727.663,62.529,727.663,60.159Z" transform="translate(-655.845 -50.099)" fill="#fff"/>
          <path id="Fill-8" d="M834,16h1.069V29.455H834Z" transform="translate(-759.687 -14.574)" fill="#fff"/>
          <path id="Fill-9" d="M966.025,69.528a2.5,2.5,0,0,0,.846.16c.642,0,1.078-.258,1.479-1.185l.757-1.729L965,57h1.167l3.52,8.474L973.18,57h1.176l-5.008,11.824a2.56,2.56,0,0,1-2.459,1.809,4.094,4.094,0,0,1-1.043-.143l.178-.962" transform="translate(-879.014 -51.921)" fill="#fff"/>
          <path id="Fill-10" d="M870.984,64.971q-.107-.508-.16-.882a5.317,5.317,0,0,1-.053-.757,4.119,4.119,0,0,1-1.524,1.319,4.2,4.2,0,0,1-2.121.517,3.382,3.382,0,0,1-2.379-.766,2.667,2.667,0,0,1-.846-2.076,2.465,2.465,0,0,1,1.23-2.13,5.666,5.666,0,0,1,3.19-.82h2.441V58.163a2.025,2.025,0,0,0-.713-1.64,3.009,3.009,0,0,0-2-.6,3.2,3.2,0,0,0-1.925.544,1.663,1.663,0,0,0-.731,1.363h-1.069l-.018-.053a2.258,2.258,0,0,1,1.016-1.942A4.369,4.369,0,0,1,868.106,55a4.322,4.322,0,0,1,2.762.829,2.826,2.826,0,0,1,1.043,2.361V63a7.452,7.452,0,0,0,.062,1.007,6.815,6.815,0,0,0,.2.962Zm-3.725-.7a3.942,3.942,0,0,0,2.183-.6,2.992,2.992,0,0,0,1.319-1.533v-1.88H868.3a3.976,3.976,0,0,0-2.326.633,1.814,1.814,0,0,0-.918,1.524,1.685,1.685,0,0,0,.588,1.345A2.412,2.412,0,0,0,867.259,64.267Z" transform="translate(-786.923 -50.099)" fill="#fff"/>
        </g>
        <g id="Get-it-on" transform="translate(34.834 8.114)">
          <path id="Fill-1_2_" d="M0,4.054A3.194,3.194,0,0,1,3.439.9,3.155,3.155,0,0,1,6.077,2.165l-.936.5a2.175,2.175,0,0,0-1.7-.811,2.166,2.166,0,0,0-2.263,2.2,2.176,2.176,0,0,0,2.263,2.2A2.431,2.431,0,0,0,4.99,5.7V4.767H3.03V3.823h3.1V6.095A3.655,3.655,0,0,1,3.439,7.209,3.189,3.189,0,0,1,0,4.054" transform="translate(0 -0.9)" fill="#fff"/>
          <path id="Fill-2_1_" d="M85.5,8.13V2h4.553v.945H86.667V4.522h3.315v.953H86.667V7.186h3.386V8.13H85.5" transform="translate(-77.882 -1.902)" fill="#fff"/>
          <path id="Fill-3_1_" d="M151.078,8.13V2.945H149.1V2h5.106v.945h-1.978V8.13h-1.149" transform="translate(-135.814 -1.902)" fill="#fff"/>
          <path id="Fill-4_2_" d="M252.3,2h1.114V8.13H252.3Z" transform="translate(-229.819 -1.902)" fill="#fff"/>
          <path id="Fill-5_1_" d="M280.378,8.13V2.945H278.4V2h5.106v.945h-1.978V8.13h-1.149" transform="translate(-253.593 -1.902)" fill="#fff"/>
          <path id="Fill-6_1_" d="M378.5,4.154a3.4,3.4,0,1,1,3.395,3.154A3.163,3.163,0,0,1,378.5,4.154Zm5.569-.053a2.183,2.183,0,0,0-4.366,0,2.183,2.183,0,0,0,4.366,0Z" transform="translate(-344.774 -0.991)" fill="#fff"/>
          <path id="Fill-7_2_" d="M473.662,8.13l-3.413-4.384V8.13H469.1V2h1.176l3.341,4.25V2h1.149V8.13h-1.1" transform="translate(-427.301 -1.902)" fill="#fff"/>
        </g>
      </g>
      <g id="google-play-5" transform="translate(12.025 10.164)">
        <path id="Tracé_1991" data-name="Tracé 1991" d="M16.647,9.051.954.082A.632.632,0,0,0,.318.088.628.628,0,0,0,0,.635s.006.827.013,2.188L11.444,14.255Z" transform="translate(0 0)" fill="url(#linear-gradient)"/>
        <path id="Tracé_1992" data-name="Tracé 1992" d="M.2,44.4c.019,4.911.076,16.832.1,22.767L11.638,55.831Z" transform="translate(-0.187 -41.577)" fill="url(#linear-gradient-2)"/>
        <path id="Tracé_1993" data-name="Tracé 1993" d="M193.992,147.434,185.01,142.3l-5.21,5.2,5.878,5.878,8.32-4.847a.636.636,0,0,0,.318-.547A.644.644,0,0,0,193.992,147.434Z" transform="translate(-168.362 -133.249)" fill="url(#linear-gradient-3)"/>
        <path id="Tracé_1994" data-name="Tracé 1994" d="M1.7,235.529c.013,2.118.019,3.473.019,3.473a.621.621,0,0,0,.318.547.632.632,0,0,0,.636,0l16.24-9.472L13.036,224.2Z" transform="translate(-1.592 -209.939)" fill="url(#linear-gradient-4)"/>
      </g>
    </g>
  </g>
</svg>
