<svg xmlns="http://www.w3.org/2000/svg" width="170" height="55" viewBox="0 0 170 55">
  <g id="App_atore" data-name="App atore" transform="translate(-1.025 5.489)">
    <rect id="Rectangle_76" data-name="Rectangle 76" width="170" height="55" rx="10" transform="translate(1.025 -5.489)" fill="#141414"/>
    <g id="App-Store" transform="translate(8.28 -3.724)">
      <g id="icon" transform="translate(13.745 9.235)">
        <path id="Fill-2" d="M20.16,76.906a6.767,6.767,0,0,1,3.211-5.667,6.96,6.96,0,0,0-5.447-2.949c-2.288-.241-4.513,1.375-5.677,1.375-1.186,0-2.991-1.343-4.922-1.312a7.237,7.237,0,0,0-6.1,3.725C-1.406,76.644.557,83.36,3.086,87.054c1.27,1.805,2.739,3.83,4.68,3.757,1.889-.073,2.6-1.207,4.88-1.207s2.928,1.207,4.9,1.165c2.036-.031,3.306-1.816,4.534-3.642a14.8,14.8,0,0,0,2.067-4.219,6.545,6.545,0,0,1-3.988-6" transform="translate(0.023 -61.102)" fill="#fff"/>
        <path id="Fill-3" d="M118.841,4.764A6.658,6.658,0,0,0,120.362,0a6.751,6.751,0,0,0-4.376,2.267,6.384,6.384,0,0,0-1.564,4.586,5.593,5.593,0,0,0,4.418-2.088" transform="translate(-102.383)" fill="#fff"/>
      </g>
      <g id="Groupe_767" data-name="Groupe 767" transform="translate(48.263 22.961)">
        <path id="Fill-4" d="M12.976,18.4H10.331L8.883,13.845H3.846L2.471,18.4H-.1L4.885,2.9H7.97l5.006,15.5ZM8.453,11.936,7.141,7.9c-.136-.42-.4-1.385-.777-2.917H6.312c-.157.661-.4,1.637-.735,2.917l-1.291,4.04Z" transform="translate(0.1 -2.68)" fill="#fff"/>
        <path id="Fill-5" d="M154.767,47.588a6.3,6.3,0,0,1-1.553,4.5,4.524,4.524,0,0,1-3.442,1.469,3.447,3.447,0,0,1-3.19-1.585v5.866h-2.487V45.8c0-1.2-.031-2.414-.094-3.673h2.183l.136,1.774h.042a4.407,4.407,0,0,1,7.063-.441A6.079,6.079,0,0,1,154.767,47.588Zm-2.529.084a4.562,4.562,0,0,0-.735-2.687,2.544,2.544,0,0,0-2.162-1.1,2.637,2.637,0,0,0-1.669.609,2.81,2.81,0,0,0-.976,1.6,3.4,3.4,0,0,0-.115.756v1.868a3,3,0,0,0,.745,2.057,2.48,2.48,0,0,0,1.941.84,2.562,2.562,0,0,0,2.183-1.081A4.741,4.741,0,0,0,152.238,47.672Z" transform="translate(-128.878 -37.587)" fill="#fff"/>
        <path id="Fill-6" d="M277.167,47.588a6.3,6.3,0,0,1-1.553,4.5,4.524,4.524,0,0,1-3.442,1.469,3.447,3.447,0,0,1-3.19-1.585v5.866h-2.487V45.8c0-1.2-.031-2.414-.094-3.673h2.183l.136,1.774h.042a4.407,4.407,0,0,1,7.063-.441A6.079,6.079,0,0,1,277.167,47.588Zm-2.529.084a4.562,4.562,0,0,0-.735-2.687,2.544,2.544,0,0,0-2.162-1.1,2.637,2.637,0,0,0-1.669.609,2.867,2.867,0,0,0-.976,1.6,3.4,3.4,0,0,0-.115.756v1.868a3,3,0,0,0,.745,2.057,2.48,2.48,0,0,0,1.941.84,2.549,2.549,0,0,0,2.183-1.081A4.67,4.67,0,0,0,274.638,47.672Z" transform="translate(-238.433 -37.587)" fill="#fff"/>
        <path id="Fill-7" d="M424.1,12.176a4.15,4.15,0,0,1-1.375,3.222,6.1,6.1,0,0,1-4.219,1.354,7.382,7.382,0,0,1-4.009-.965l.577-2.067a6.97,6.97,0,0,0,3.589.965,3.38,3.38,0,0,0,2.183-.63,2.057,2.057,0,0,0,.787-1.69A2.186,2.186,0,0,0,421,10.78a5.993,5.993,0,0,0-2.141-1.2c-2.739-1.018-4.093-2.5-4.093-4.439A3.937,3.937,0,0,1,416.2,2.017,5.7,5.7,0,0,1,420.009.8a7.489,7.489,0,0,1,3.516.735l-.63,2.015a6.194,6.194,0,0,0-2.98-.714,3.092,3.092,0,0,0-2.057.64,1.862,1.862,0,0,0-.619,1.406,1.884,1.884,0,0,0,.714,1.511,8.006,8.006,0,0,0,2.256,1.2,7.565,7.565,0,0,1,2.938,1.889,3.927,3.927,0,0,1,.955,2.7" transform="translate(-370.991 -0.8)" fill="#fff"/>
        <path id="Fill-8" d="M526.4,22.249h-2.739v5.426c0,1.375.483,2.067,1.448,2.067a4.607,4.607,0,0,0,1.1-.115l.073,1.889a5.759,5.759,0,0,1-1.931.273,2.972,2.972,0,0,1-2.3-.9,4.381,4.381,0,0,1-.829-3.012V22.238H519.6V20.381h1.627V18.335l2.435-.735v2.781H526.4v1.868" transform="translate(-465.061 -15.837)" fill="#fff"/>
        <path id="Fill-9" d="M608.445,47.719a6.138,6.138,0,0,1-1.469,4.229,5.259,5.259,0,0,1-4.093,1.7,5.037,5.037,0,0,1-3.925-1.627,5.908,5.908,0,0,1-1.459-4.114,6.1,6.1,0,0,1,1.5-4.25A5.237,5.237,0,0,1,603.062,42a5.107,5.107,0,0,1,3.956,1.637A5.834,5.834,0,0,1,608.445,47.719Zm-2.571.052a5.008,5.008,0,0,0-.661-2.634,2.576,2.576,0,0,0-4.513,0,5.682,5.682,0,0,0,0,5.321,2.549,2.549,0,0,0,4.492-.021A5.085,5.085,0,0,0,605.874,47.772Z" transform="translate(-534.786 -37.676)" fill="#fff"/>
        <path id="Fill-10" d="M727.692,44.314a4.6,4.6,0,0,0-.787-.063,2.343,2.343,0,0,0-2.025.986,3.744,3.744,0,0,0-.619,2.2v5.866h-2.487V45.646c0-1.291-.021-2.466-.073-3.516h2.162l.094,2.141h.073a3.809,3.809,0,0,1,1.238-1.774,3.021,3.021,0,0,1,1.794-.6,5.227,5.227,0,0,1,.619.042l.01,2.372" transform="translate(-645.953 -37.587)" fill="#fff"/>
        <path id="Fill-11" d="M799.838,46.921a5.675,5.675,0,0,1-.094,1.123h-7.451a3.24,3.24,0,0,0,1.081,2.529,3.721,3.721,0,0,0,2.435.777,8.361,8.361,0,0,0,3.012-.525l.388,1.721a9.325,9.325,0,0,1-3.746.693,5.428,5.428,0,0,1-4.082-1.532,5.657,5.657,0,0,1-1.48-4.1,6.412,6.412,0,0,1,1.385-4.208,4.755,4.755,0,0,1,3.9-1.795,4.147,4.147,0,0,1,3.652,1.795A6.07,6.07,0,0,1,799.838,46.921Zm-2.372-.64a3.346,3.346,0,0,0-.483-1.91,2.167,2.167,0,0,0-1.973-1.039,2.359,2.359,0,0,0-1.973,1.007,3.733,3.733,0,0,0-.735,1.931Z" transform="translate(-706.995 -37.318)" fill="#fff"/>
      </g>
      <g id="Available-on-the" transform="translate(49.187 9.623)">
        <path id="Fill-12" d="M6.133,12.119h-1.3L4.118,9.884H1.641L.959,12.119H-.3L2.145,4.5H3.656ZM3.9,8.939l-.64-1.994c-.063-.2-.189-.682-.388-1.438H2.848c-.084.325-.189.8-.367,1.438l-.63,1.994Z" transform="translate(0.3 -4.101)" fill="#fff"/>
        <path id="Fill-13" d="M74.379,24.7,72.3,30.2H71.115L69.1,24.7h1.312l.934,2.907c.157.483.294.944.4,1.385h.031c.094-.4.231-.861.4-1.385L73.1,24.7h1.28" transform="translate(-61.817 -22.181)" fill="#fff"/>
        <path id="Fill-14" d="M132.511,29.393l-.094-.63h-.031a1.889,1.889,0,0,1-1.606.756A1.594,1.594,0,0,1,129.1,27.9c0-1.354,1.175-2.057,3.211-2.057v-.1c0-.724-.388-1.081-1.144-1.081a2.563,2.563,0,0,0-1.438.409l-.252-.8a3.528,3.528,0,0,1,1.889-.472c1.438,0,2.162.756,2.162,2.277V28.1a7.314,7.314,0,0,0,.084,1.312l-1.1-.021Zm-.168-2.739c-1.354,0-2.036.325-2.036,1.112a.778.778,0,0,0,.84.861,1.168,1.168,0,0,0,1.2-1.123Z" transform="translate(-115.52 -21.376)" fill="#fff"/>
        <path id="Fill-15" d="M191.024,3.659a.729.729,0,1,1,.021-1.459.711.711,0,0,1,.745.724A.714.714,0,0,1,191.024,3.659Zm-.588.9h1.217V10.05h-1.217Z" transform="translate(-170.298 -2.043)" fill="#fff"/>
        <path id="Fill-16" d="M223.9.7h1.217V8.707H223.9Z" transform="translate(-200.372 -0.7)" fill="#fff"/>
        <path id="Fill-17" d="M255.811,29.3l-.094-.63h-.031a1.889,1.889,0,0,1-1.606.756,1.594,1.594,0,0,1-1.679-1.616c0-1.354,1.175-2.057,3.211-2.057v-.1c0-.724-.388-1.081-1.144-1.081a2.563,2.563,0,0,0-1.438.409l-.252-.808a3.528,3.528,0,0,1,1.889-.472c1.438,0,2.162.756,2.162,2.277V28a8.677,8.677,0,0,0,.073,1.312h-1.091Zm-.168-2.739c-1.354,0-2.036.325-2.036,1.112a.778.778,0,0,0,.84.861,1.168,1.168,0,0,0,1.2-1.123Z" transform="translate(-225.881 -21.286)" fill="#fff"/>
        <path id="Fill-18" d="M317.365,8.844a1.87,1.87,0,0,1-1.732-.976h-.021l-.073.85H314.5c.031-.441.042-.934.042-1.48V.7h1.228V4.027h.021a1.888,1.888,0,0,1,1.753-.913c1.322,0,2.246,1.133,2.246,2.781C319.789,7.595,318.761,8.844,317.365,8.844Zm-.252-4.775a1.4,1.4,0,0,0-1.343,1.459v.965a1.342,1.342,0,0,0,1.322,1.375c.913,0,1.459-.745,1.459-1.931,0-1.112-.567-1.868-1.438-1.868Z" transform="translate(-281.464 -0.7)" fill="#fff"/>
        <path id="Fill-19" d="M382.1.7h1.217V8.707H382.1Z" transform="translate(-341.97 -0.7)" fill="#fff"/>
        <path id="Fill-20" d="M415.738,26.669h-3.663a1.577,1.577,0,0,0,1.732,1.627,4.128,4.128,0,0,0,1.48-.262l.189.85a4.451,4.451,0,0,1-1.836.336,2.55,2.55,0,0,1-2.739-2.77,2.684,2.684,0,0,1,2.6-2.949,2.314,2.314,0,0,1,2.288,2.613A2.128,2.128,0,0,1,415.738,26.669Zm-1.112-.871c0-.85-.43-1.448-1.207-1.448a1.448,1.448,0,0,0-1.333,1.448Z" transform="translate(-367.748 -21.107)" fill="#fff"/>
        <path id="Fill-21" d="M504.945,29.43a2.612,2.612,0,0,1-2.645-2.823,2.674,2.674,0,0,1,2.739-2.907,2.592,2.592,0,0,1,2.645,2.812A2.694,2.694,0,0,1,504.945,29.43ZM505,24.592c-.882,0-1.448.829-1.448,1.973s.577,1.952,1.438,1.952,1.438-.882,1.438-1.983S505.858,24.592,505,24.592Z" transform="translate(-449.556 -21.286)" fill="#fff"/>
        <path id="Fill-22" d="M575.106,29.214h-1.217V26.056c0-.976-.378-1.459-1.112-1.459a1.262,1.262,0,0,0-1.217,1.343V29.2h-1.217V25.29c0-.483-.01-1.007-.042-1.574h1.07l.052.85h.032A1.976,1.976,0,0,1,573.2,23.6c1.154,0,1.91.882,1.91,2.319v3.3" transform="translate(-510.42 -21.197)" fill="#fff"/>
        <path id="Fill-23" d="M663.827,13.988h-1.343v2.666c0,.682.241,1.018.714,1.018a2.671,2.671,0,0,0,.546-.052l.031.923a2.645,2.645,0,0,1-.945.136c-.965,0-1.532-.535-1.532-1.92v-2.77h-.8v-.913h.8V12.067l1.2-.367v1.364h1.343v.923" transform="translate(-591.154 -10.546)" fill="#fff"/>
        <path id="Fill-24" d="M713.164,8.718h-1.217V5.58c0-.986-.378-1.48-1.112-1.48a1.2,1.2,0,0,0-1.217,1.3V8.707H708.4V.7h1.217V4h.021a1.846,1.846,0,0,1,1.648-.892c1.165,0,1.878.9,1.878,2.34V8.718" transform="translate(-634.027 -0.7)" fill="#fff"/>
        <path id="Fill-25" d="M771.938,26.669h-3.663a1.577,1.577,0,0,0,1.732,1.627,4.128,4.128,0,0,0,1.48-.262l.189.85a4.451,4.451,0,0,1-1.836.336,2.55,2.55,0,0,1-2.739-2.77,2.684,2.684,0,0,1,2.6-2.949,2.314,2.314,0,0,1,2.288,2.613A2.13,2.13,0,0,1,771.938,26.669Zm-1.112-.871c0-.85-.43-1.448-1.207-1.448a1.44,1.44,0,0,0-1.333,1.448Z" transform="translate(-686.567 -21.107)" fill="#fff"/>
      </g>
    </g>
  </g>
</svg>
