<svg xmlns="http://www.w3.org/2000/svg" width="800.456" height="568.078" viewBox="0 0 800.456 568.078">
  <g id="BG-point-2" transform="translate(-155.154 -42.389)" opacity="0.456">
    <g id="Groupe_782" data-name="Groupe 782" transform="translate(272.974 506.001)">
      <g id="Groupe_774" data-name="Groupe 774">
        <path id="Tracé_2556" data-name="Tracé 2556" d="M236.692,346.118a2.492,2.492,0,1,1-2.492-2.492A2.492,2.492,0,0,1,236.692,346.118Z" transform="translate(-231.709 -343.626)" fill="#141414"/>
        <path id="Tracé_2557" data-name="Tracé 2557" d="M236.692,359.046a2.492,2.492,0,1,1-2.492-2.492A2.492,2.492,0,0,1,236.692,359.046Z" transform="translate(-231.709 -336.657)" fill="#141414"/>
        <circle id="Ellipse_94" data-name="Ellipse 94" cx="2.492" cy="2.492" r="2.492" transform="translate(0 39.792)" fill="#141414"/>
        <path id="Tracé_2558" data-name="Tracé 2558" d="M236.692,384.9a2.492,2.492,0,1,1-2.492-2.493A2.492,2.492,0,0,1,236.692,384.9Z" transform="translate(-231.709 -322.721)" fill="#141414"/>
        <circle id="Ellipse_95" data-name="Ellipse 95" cx="2.492" cy="2.492" r="2.492" transform="translate(0 79.585)" fill="#141414"/>
        <path id="Tracé_2559" data-name="Tracé 2559" d="M236.692,410.758a2.492,2.492,0,1,1-2.492-2.493A2.492,2.492,0,0,1,236.692,410.758Z" transform="translate(-231.709 -308.784)" fill="#141414"/>
      </g>
      <g id="Groupe_775" data-name="Groupe 775" transform="translate(20.678)">
        <path id="Tracé_2560" data-name="Tracé 2560" d="M250.128,346.118a2.492,2.492,0,1,1-2.492-2.492A2.492,2.492,0,0,1,250.128,346.118Z" transform="translate(-245.144 -343.626)" fill="#141414"/>
        <path id="Tracé_2561" data-name="Tracé 2561" d="M250.128,359.046a2.492,2.492,0,1,1-2.492-2.492A2.492,2.492,0,0,1,250.128,359.046Z" transform="translate(-245.144 -336.657)" fill="#141414"/>
        <circle id="Ellipse_96" data-name="Ellipse 96" cx="2.492" cy="2.492" r="2.492" transform="translate(0 39.792)" fill="#141414"/>
        <path id="Tracé_2562" data-name="Tracé 2562" d="M250.128,384.9a2.492,2.492,0,1,1-2.492-2.493A2.492,2.492,0,0,1,250.128,384.9Z" transform="translate(-245.144 -322.721)" fill="#141414"/>
        <circle id="Ellipse_97" data-name="Ellipse 97" cx="2.492" cy="2.492" r="2.492" transform="translate(0 79.585)" fill="#141414"/>
        <path id="Tracé_2563" data-name="Tracé 2563" d="M250.128,410.758a2.492,2.492,0,1,1-2.492-2.493A2.492,2.492,0,0,1,250.128,410.758Z" transform="translate(-245.144 -308.784)" fill="#141414"/>
      </g>
      <g id="Groupe_776" data-name="Groupe 776" transform="translate(41.355)">
        <path id="Tracé_2564" data-name="Tracé 2564" d="M263.565,346.118a2.492,2.492,0,1,1-2.492-2.492A2.492,2.492,0,0,1,263.565,346.118Z" transform="translate(-258.58 -343.626)" fill="#141414"/>
        <path id="Tracé_2565" data-name="Tracé 2565" d="M263.565,359.046a2.492,2.492,0,1,1-2.492-2.492A2.492,2.492,0,0,1,263.565,359.046Z" transform="translate(-258.58 -336.657)" fill="#141414"/>
        <path id="Tracé_2566" data-name="Tracé 2566" d="M263.565,371.974a2.492,2.492,0,1,1-2.492-2.493A2.492,2.492,0,0,1,263.565,371.974Z" transform="translate(-258.58 -329.689)" fill="#141414"/>
        <path id="Tracé_2567" data-name="Tracé 2567" d="M263.565,384.9a2.492,2.492,0,1,1-2.492-2.493A2.492,2.492,0,0,1,263.565,384.9Z" transform="translate(-258.58 -322.721)" fill="#141414"/>
        <path id="Tracé_2568" data-name="Tracé 2568" d="M263.565,397.83a2.492,2.492,0,1,1-2.492-2.493A2.492,2.492,0,0,1,263.565,397.83Z" transform="translate(-258.58 -315.752)" fill="#141414"/>
        <path id="Tracé_2569" data-name="Tracé 2569" d="M263.565,410.758a2.492,2.492,0,1,1-2.492-2.493A2.492,2.492,0,0,1,263.565,410.758Z" transform="translate(-258.58 -308.784)" fill="#141414"/>
      </g>
      <g id="Groupe_777" data-name="Groupe 777" transform="translate(62.034)">
        <path id="Tracé_2570" data-name="Tracé 2570" d="M277,346.118a2.492,2.492,0,1,1-2.493-2.492A2.492,2.492,0,0,1,277,346.118Z" transform="translate(-272.016 -343.626)" fill="#141414"/>
        <path id="Tracé_2571" data-name="Tracé 2571" d="M277,359.046a2.492,2.492,0,1,1-2.493-2.492A2.492,2.492,0,0,1,277,359.046Z" transform="translate(-272.016 -336.657)" fill="#141414"/>
        <path id="Tracé_2572" data-name="Tracé 2572" d="M277,371.974a2.492,2.492,0,1,1-2.493-2.493A2.492,2.492,0,0,1,277,371.974Z" transform="translate(-272.016 -329.689)" fill="#141414"/>
        <path id="Tracé_2573" data-name="Tracé 2573" d="M277,384.9a2.492,2.492,0,1,1-2.493-2.493A2.492,2.492,0,0,1,277,384.9Z" transform="translate(-272.016 -322.721)" fill="#141414"/>
        <path id="Tracé_2574" data-name="Tracé 2574" d="M277,397.83a2.492,2.492,0,1,1-2.493-2.493A2.492,2.492,0,0,1,277,397.83Z" transform="translate(-272.016 -315.752)" fill="#141414"/>
        <path id="Tracé_2575" data-name="Tracé 2575" d="M277,410.758a2.492,2.492,0,1,1-2.493-2.493A2.492,2.492,0,0,1,277,410.758Z" transform="translate(-272.016 -308.784)" fill="#141414"/>
      </g>
      <g id="Groupe_778" data-name="Groupe 778" transform="translate(82.712)">
        <path id="Tracé_2576" data-name="Tracé 2576" d="M290.435,346.118a2.492,2.492,0,1,1-2.492-2.492A2.491,2.491,0,0,1,290.435,346.118Z" transform="translate(-285.452 -343.626)" fill="#141414"/>
        <path id="Tracé_2577" data-name="Tracé 2577" d="M290.435,359.046a2.492,2.492,0,1,1-2.492-2.492A2.491,2.491,0,0,1,290.435,359.046Z" transform="translate(-285.452 -336.657)" fill="#141414"/>
        <circle id="Ellipse_98" data-name="Ellipse 98" cx="2.492" cy="2.492" r="2.492" transform="translate(0 39.792)" fill="#141414"/>
        <path id="Tracé_2578" data-name="Tracé 2578" d="M290.435,384.9a2.492,2.492,0,1,1-2.492-2.493A2.491,2.491,0,0,1,290.435,384.9Z" transform="translate(-285.452 -322.721)" fill="#141414"/>
        <circle id="Ellipse_99" data-name="Ellipse 99" cx="2.492" cy="2.492" r="2.492" transform="translate(0 79.585)" fill="#141414"/>
        <path id="Tracé_2579" data-name="Tracé 2579" d="M290.435,410.758a2.492,2.492,0,1,1-2.492-2.493A2.491,2.491,0,0,1,290.435,410.758Z" transform="translate(-285.452 -308.784)" fill="#141414"/>
      </g>
      <g id="Groupe_779" data-name="Groupe 779" transform="translate(103.391)">
        <path id="Tracé_2580" data-name="Tracé 2580" d="M303.871,346.118a2.492,2.492,0,1,1-2.492-2.492A2.492,2.492,0,0,1,303.871,346.118Z" transform="translate(-298.888 -343.626)" fill="#141414"/>
        <path id="Tracé_2581" data-name="Tracé 2581" d="M303.871,359.046a2.492,2.492,0,1,1-2.492-2.492A2.492,2.492,0,0,1,303.871,359.046Z" transform="translate(-298.888 -336.657)" fill="#141414"/>
        <circle id="Ellipse_100" data-name="Ellipse 100" cx="2.492" cy="2.492" r="2.492" transform="translate(0 39.792)" fill="#141414"/>
        <path id="Tracé_2582" data-name="Tracé 2582" d="M303.871,384.9a2.492,2.492,0,1,1-2.492-2.493A2.492,2.492,0,0,1,303.871,384.9Z" transform="translate(-298.888 -322.721)" fill="#141414"/>
        <circle id="Ellipse_101" data-name="Ellipse 101" cx="2.492" cy="2.492" r="2.492" transform="translate(0 79.585)" fill="#141414"/>
        <path id="Tracé_2583" data-name="Tracé 2583" d="M303.871,410.758a2.492,2.492,0,1,1-2.492-2.493A2.492,2.492,0,0,1,303.871,410.758Z" transform="translate(-298.888 -308.784)" fill="#141414"/>
      </g>
      <g id="Groupe_780" data-name="Groupe 780" transform="translate(124.069)">
        <path id="Tracé_2584" data-name="Tracé 2584" d="M317.307,346.118a2.492,2.492,0,1,1-2.492-2.492A2.492,2.492,0,0,1,317.307,346.118Z" transform="translate(-312.324 -343.626)" fill="#141414"/>
        <path id="Tracé_2585" data-name="Tracé 2585" d="M317.307,359.046a2.492,2.492,0,1,1-2.492-2.492A2.492,2.492,0,0,1,317.307,359.046Z" transform="translate(-312.324 -336.657)" fill="#141414"/>
        <circle id="Ellipse_102" data-name="Ellipse 102" cx="2.492" cy="2.492" r="2.492" transform="translate(0 39.792)" fill="#141414"/>
        <path id="Tracé_2586" data-name="Tracé 2586" d="M317.307,384.9a2.492,2.492,0,1,1-2.492-2.493A2.492,2.492,0,0,1,317.307,384.9Z" transform="translate(-312.324 -322.721)" fill="#141414"/>
        <circle id="Ellipse_103" data-name="Ellipse 103" cx="2.492" cy="2.492" r="2.492" transform="translate(0 79.585)" fill="#141414"/>
        <path id="Tracé_2587" data-name="Tracé 2587" d="M317.307,410.758a2.492,2.492,0,1,1-2.492-2.493A2.492,2.492,0,0,1,317.307,410.758Z" transform="translate(-312.324 -308.784)" fill="#141414"/>
      </g>
      <g id="Groupe_781" data-name="Groupe 781" transform="translate(144.747)">
        <path id="Tracé_2588" data-name="Tracé 2588" d="M330.743,346.118a2.492,2.492,0,1,1-2.492-2.492A2.492,2.492,0,0,1,330.743,346.118Z" transform="translate(-325.76 -343.626)" fill="#141414"/>
        <path id="Tracé_2589" data-name="Tracé 2589" d="M330.743,359.046a2.492,2.492,0,1,1-2.492-2.492A2.492,2.492,0,0,1,330.743,359.046Z" transform="translate(-325.76 -336.657)" fill="#141414"/>
        <path id="Tracé_2590" data-name="Tracé 2590" d="M330.743,371.974a2.492,2.492,0,1,1-2.492-2.493A2.492,2.492,0,0,1,330.743,371.974Z" transform="translate(-325.76 -329.689)" fill="#141414"/>
        <path id="Tracé_2591" data-name="Tracé 2591" d="M330.743,384.9a2.492,2.492,0,1,1-2.492-2.493A2.492,2.492,0,0,1,330.743,384.9Z" transform="translate(-325.76 -322.721)" fill="#141414"/>
        <path id="Tracé_2592" data-name="Tracé 2592" d="M330.743,397.83a2.492,2.492,0,1,1-2.492-2.493A2.492,2.492,0,0,1,330.743,397.83Z" transform="translate(-325.76 -315.752)" fill="#141414"/>
        <path id="Tracé_2593" data-name="Tracé 2593" d="M330.743,410.758a2.492,2.492,0,1,1-2.492-2.493A2.492,2.492,0,0,1,330.743,410.758Z" transform="translate(-325.76 -308.784)" fill="#141414"/>
      </g>
    </g>
    <g id="Groupe_789" data-name="Groupe 789" transform="translate(155.154 42.389)">
      <g id="Groupe_783" data-name="Groupe 783" transform="translate(0)">
        <path id="Tracé_2594" data-name="Tracé 2594" d="M196.43,47.374a2.492,2.492,0,1,1,2.492-2.493A2.493,2.493,0,0,1,196.43,47.374Z" transform="translate(-134.249 -42.389)" fill="#141414"/>
        <path id="Tracé_2595" data-name="Tracé 2595" d="M183.5,47.374a2.492,2.492,0,1,1,2.492-2.493A2.492,2.492,0,0,1,183.5,47.374Z" transform="translate(-141.217 -42.389)" fill="#141414"/>
        <path id="Tracé_2596" data-name="Tracé 2596" d="M170.574,47.374a2.492,2.492,0,1,1,2.492-2.493A2.492,2.492,0,0,1,170.574,47.374Z" transform="translate(-148.185 -42.389)" fill="#141414"/>
        <path id="Tracé_2597" data-name="Tracé 2597" d="M157.646,47.374a2.492,2.492,0,1,1,2.492-2.493A2.492,2.492,0,0,1,157.646,47.374Z" transform="translate(-155.154 -42.389)" fill="#141414"/>
      </g>
      <g id="Groupe_784" data-name="Groupe 784" transform="translate(0 20.678)">
        <circle id="Ellipse_104" data-name="Ellipse 104" cx="2.492" cy="2.492" r="2.492" transform="translate(59.689)" fill="#141414"/>
        <circle id="Ellipse_105" data-name="Ellipse 105" cx="2.492" cy="2.492" r="2.492" transform="translate(39.793)" fill="#141414"/>
        <path id="Tracé_2598" data-name="Tracé 2598" d="M170.574,60.808a2.492,2.492,0,1,1,2.492-2.492A2.492,2.492,0,0,1,170.574,60.808Z" transform="translate(-148.185 -55.825)" fill="#141414"/>
        <circle id="Ellipse_106" data-name="Ellipse 106" cx="2.492" cy="2.492" r="2.492" fill="#141414"/>
      </g>
      <g id="Groupe_785" data-name="Groupe 785" transform="translate(0 41.357)">
        <path id="Tracé_2599" data-name="Tracé 2599" d="M196.43,74.244a2.492,2.492,0,1,1,2.492-2.492A2.492,2.492,0,0,1,196.43,74.244Z" transform="translate(-134.249 -69.261)" fill="#141414"/>
        <path id="Tracé_2600" data-name="Tracé 2600" d="M183.5,74.244a2.492,2.492,0,1,1,2.492-2.492A2.492,2.492,0,0,1,183.5,74.244Z" transform="translate(-141.217 -69.261)" fill="#141414"/>
        <path id="Tracé_2601" data-name="Tracé 2601" d="M170.574,74.244a2.492,2.492,0,1,1,2.492-2.492A2.492,2.492,0,0,1,170.574,74.244Z" transform="translate(-148.185 -69.261)" fill="#141414"/>
        <path id="Tracé_2602" data-name="Tracé 2602" d="M157.646,74.244a2.492,2.492,0,1,1,2.492-2.492A2.492,2.492,0,0,1,157.646,74.244Z" transform="translate(-155.154 -69.261)" fill="#141414"/>
      </g>
      <g id="Groupe_786" data-name="Groupe 786" transform="translate(0 62.035)">
        <circle id="Ellipse_107" data-name="Ellipse 107" cx="2.492" cy="2.492" r="2.492" transform="translate(59.689)" fill="#141414"/>
        <circle id="Ellipse_108" data-name="Ellipse 108" cx="2.492" cy="2.492" r="2.492" transform="translate(39.793)" fill="#141414"/>
        <path id="Tracé_2603" data-name="Tracé 2603" d="M170.574,87.68a2.492,2.492,0,1,1,2.492-2.492A2.492,2.492,0,0,1,170.574,87.68Z" transform="translate(-148.185 -82.697)" fill="#141414"/>
        <circle id="Ellipse_109" data-name="Ellipse 109" cx="2.492" cy="2.492" r="2.492" fill="#141414"/>
      </g>
      <g id="Groupe_787" data-name="Groupe 787" transform="translate(0 82.713)">
        <path id="Tracé_2604" data-name="Tracé 2604" d="M196.43,101.116a2.492,2.492,0,1,1,2.492-2.492A2.492,2.492,0,0,1,196.43,101.116Z" transform="translate(-134.249 -96.133)" fill="#141414"/>
        <path id="Tracé_2605" data-name="Tracé 2605" d="M183.5,101.116a2.492,2.492,0,1,1,2.492-2.492A2.492,2.492,0,0,1,183.5,101.116Z" transform="translate(-141.217 -96.133)" fill="#141414"/>
        <path id="Tracé_2606" data-name="Tracé 2606" d="M170.574,101.116a2.492,2.492,0,1,1,2.492-2.492A2.492,2.492,0,0,1,170.574,101.116Z" transform="translate(-148.185 -96.133)" fill="#141414"/>
        <path id="Tracé_2607" data-name="Tracé 2607" d="M157.646,101.116a2.492,2.492,0,1,1,2.492-2.492A2.492,2.492,0,0,1,157.646,101.116Z" transform="translate(-155.154 -96.133)" fill="#141414"/>
      </g>
      <g id="Groupe_788" data-name="Groupe 788" transform="translate(0 103.39)">
        <circle id="Ellipse_110" data-name="Ellipse 110" cx="2.492" cy="2.492" r="2.492" transform="translate(59.689 0.001)" fill="#141414"/>
        <circle id="Ellipse_111" data-name="Ellipse 111" cx="2.492" cy="2.492" r="2.492" transform="translate(39.793 0.001)" fill="#141414"/>
        <path id="Tracé_2608" data-name="Tracé 2608" d="M170.574,114.553a2.492,2.492,0,1,1,2.492-2.492A2.492,2.492,0,0,1,170.574,114.553Z" transform="translate(-148.185 -109.568)" fill="#141414"/>
        <circle id="Ellipse_112" data-name="Ellipse 112" cx="2.492" cy="2.492" r="2.492" transform="translate(0 0.001)" fill="#141414"/>
      </g>
    </g>
    <g id="Groupe_796" data-name="Groupe 796" transform="translate(847.234 113.854)">
      <g id="Groupe_790" data-name="Groupe 790" transform="translate(103.39 0)">
        <path id="Tracé_2609" data-name="Tracé 2609" d="M672.02,130.1a2.492,2.492,0,1,1,2.492,2.492A2.492,2.492,0,0,1,672.02,130.1Z" transform="translate(-672.02 -67.918)" fill="#141414"/>
        <path id="Tracé_2610" data-name="Tracé 2610" d="M672.02,117.172a2.492,2.492,0,1,1,2.492,2.492A2.492,2.492,0,0,1,672.02,117.172Z" transform="translate(-672.02 -74.887)" fill="#141414"/>
        <path id="Tracé_2611" data-name="Tracé 2611" d="M672.02,104.244a2.492,2.492,0,1,1,2.492,2.492A2.492,2.492,0,0,1,672.02,104.244Z" transform="translate(-672.02 -81.855)" fill="#141414"/>
        <path id="Tracé_2612" data-name="Tracé 2612" d="M672.02,91.316a2.492,2.492,0,1,1,2.492,2.492A2.492,2.492,0,0,1,672.02,91.316Z" transform="translate(-672.02 -88.824)" fill="#141414"/>
      </g>
      <g id="Groupe_791" data-name="Groupe 791" transform="translate(82.712 0)">
        <path id="Tracé_2613" data-name="Tracé 2613" d="M658.584,130.1a2.492,2.492,0,1,1,2.492,2.492A2.492,2.492,0,0,1,658.584,130.1Z" transform="translate(-658.584 -67.918)" fill="#141414"/>
        <path id="Tracé_2614" data-name="Tracé 2614" d="M658.584,117.172a2.492,2.492,0,1,1,2.492,2.492A2.492,2.492,0,0,1,658.584,117.172Z" transform="translate(-658.584 -74.887)" fill="#141414"/>
        <path id="Tracé_2615" data-name="Tracé 2615" d="M658.584,104.244a2.492,2.492,0,1,1,2.492,2.492A2.492,2.492,0,0,1,658.584,104.244Z" transform="translate(-658.584 -81.855)" fill="#141414"/>
        <path id="Tracé_2616" data-name="Tracé 2616" d="M658.584,91.316a2.492,2.492,0,1,1,2.492,2.492A2.492,2.492,0,0,1,658.584,91.316Z" transform="translate(-658.584 -88.824)" fill="#141414"/>
      </g>
      <g id="Groupe_792" data-name="Groupe 792" transform="translate(62.035 0)">
        <path id="Tracé_2617" data-name="Tracé 2617" d="M645.149,130.1a2.492,2.492,0,1,1,2.492,2.492A2.491,2.491,0,0,1,645.149,130.1Z" transform="translate(-645.149 -67.918)" fill="#141414"/>
        <path id="Tracé_2618" data-name="Tracé 2618" d="M645.149,117.172a2.492,2.492,0,1,1,2.492,2.492A2.491,2.491,0,0,1,645.149,117.172Z" transform="translate(-645.149 -74.887)" fill="#141414"/>
        <path id="Tracé_2619" data-name="Tracé 2619" d="M645.149,104.244a2.492,2.492,0,1,1,2.492,2.492A2.491,2.491,0,0,1,645.149,104.244Z" transform="translate(-645.149 -81.855)" fill="#141414"/>
        <path id="Tracé_2620" data-name="Tracé 2620" d="M645.149,91.316a2.492,2.492,0,1,1,2.492,2.492A2.491,2.491,0,0,1,645.149,91.316Z" transform="translate(-645.149 -88.824)" fill="#141414"/>
      </g>
      <g id="Groupe_793" data-name="Groupe 793" transform="translate(41.356 0)">
        <circle id="Ellipse_113" data-name="Ellipse 113" cx="2.492" cy="2.492" r="2.492" transform="translate(0 59.689)" fill="#141414"/>
        <circle id="Ellipse_114" data-name="Ellipse 114" cx="2.492" cy="2.492" r="2.492" transform="translate(0 39.793)" fill="#141414"/>
        <path id="Tracé_2621" data-name="Tracé 2621" d="M631.713,104.244a2.492,2.492,0,1,1,2.492,2.492A2.492,2.492,0,0,1,631.713,104.244Z" transform="translate(-631.713 -81.855)" fill="#141414"/>
        <circle id="Ellipse_115" data-name="Ellipse 115" cx="2.492" cy="2.492" r="2.492" fill="#141414"/>
      </g>
      <g id="Groupe_794" data-name="Groupe 794" transform="translate(20.678 0)">
        <path id="Tracé_2622" data-name="Tracé 2622" d="M618.277,130.1a2.492,2.492,0,1,1,2.492,2.492A2.492,2.492,0,0,1,618.277,130.1Z" transform="translate(-618.277 -67.918)" fill="#141414"/>
        <path id="Tracé_2623" data-name="Tracé 2623" d="M618.277,117.172a2.492,2.492,0,1,1,2.492,2.492A2.492,2.492,0,0,1,618.277,117.172Z" transform="translate(-618.277 -74.887)" fill="#141414"/>
        <path id="Tracé_2624" data-name="Tracé 2624" d="M618.277,104.244a2.492,2.492,0,1,1,2.492,2.492A2.492,2.492,0,0,1,618.277,104.244Z" transform="translate(-618.277 -81.855)" fill="#141414"/>
        <path id="Tracé_2625" data-name="Tracé 2625" d="M618.277,91.316a2.492,2.492,0,1,1,2.492,2.492A2.492,2.492,0,0,1,618.277,91.316Z" transform="translate(-618.277 -88.824)" fill="#141414"/>
      </g>
      <g id="Groupe_795" data-name="Groupe 795" transform="translate(0 0)">
        <circle id="Ellipse_116" data-name="Ellipse 116" cx="2.492" cy="2.492" r="2.492" transform="translate(0 59.689)" fill="#141414"/>
        <circle id="Ellipse_117" data-name="Ellipse 117" cx="2.492" cy="2.492" r="2.492" transform="translate(0 39.793)" fill="#141414"/>
        <path id="Tracé_2626" data-name="Tracé 2626" d="M604.841,104.244a2.492,2.492,0,1,1,2.492,2.492A2.492,2.492,0,0,1,604.841,104.244Z" transform="translate(-604.841 -81.855)" fill="#141414"/>
        <circle id="Ellipse_118" data-name="Ellipse 118" cx="2.492" cy="2.492" r="2.492" fill="#141414"/>
      </g>
    </g>
  </g>
</svg>
