<svg xmlns="http://www.w3.org/2000/svg" width="40" height="44" viewBox="0 0 40 44">
  <path id="calendar" d="M22,37a2,2,0,1,0-2-2A2,2,0,0,0,22,37Zm10,0a2,2,0,1,0-2-2A2,2,0,0,0,32,37Zm0-8a2,2,0,1,0-2-2A2,2,0,0,0,32,29ZM22,29a2,2,0,1,0-2-2A2,2,0,0,0,22,29ZM36,5H34V3a2,2,0,0,0-4,0V5H14V3a2,2,0,1,0-4,0V5H8a6,6,0,0,0-6,6V39a6,6,0,0,0,6,6H36a6,6,0,0,0,6-6V11A6,6,0,0,0,36,5Zm2,34a2,2,0,0,1-2,2H8a2,2,0,0,1-2-2V21H38Zm0-22H6V11A2,2,0,0,1,8,9h2v2a2,2,0,0,0,4,0V9H30v2a2,2,0,0,0,4,0V9h2a2,2,0,0,1,2,2ZM12,29a2,2,0,1,0-2-2A2,2,0,0,0,12,29Zm0,8a2,2,0,1,0-2-2A2,2,0,0,0,12,37Z" transform="translate(-2 -1)" fill="#f8c467"/>
</svg>
