<svg xmlns="http://www.w3.org/2000/svg" width="39.613" height="44" viewBox="0 0 39.613 44">
  <path id="file-edit" d="M41.962,34.362l-5.324-5.324a2.2,2.2,0,0,0-3.124,0l-7.876,7.876A2.2,2.2,0,0,0,25,38.476V43.8A2.2,2.2,0,0,0,27.2,46h5.324a2.2,2.2,0,0,0,1.562-.638l7.876-7.876a2.2,2.2,0,0,0,0-3.124ZM31.6,41.6H29.4V39.4l5.676-5.676,2.2,2.2Zm-13.2,0H9.6a2.2,2.2,0,0,1-2.2-2.2V8.6A2.2,2.2,0,0,1,9.6,6.4h11V13a6.6,6.6,0,0,0,6.6,6.6h6.6v2.2a2.2,2.2,0,1,0,4.4,0V17.268a2.882,2.882,0,0,0-.132-.594v-.2a2.354,2.354,0,0,0-.418-.616h0L24.45,2.66h0a2.354,2.354,0,0,0-.616-.418.7.7,0,0,0-.2,0L22.932,2H9.6A6.6,6.6,0,0,0,3,8.6V39.4A6.6,6.6,0,0,0,9.6,46h8.8a2.2,2.2,0,1,0,0-4.4ZM25,9.5l5.7,5.7H27.2A2.2,2.2,0,0,1,25,13ZM14,28.4H27.2a2.2,2.2,0,1,0,0-4.4H14a2.2,2.2,0,1,0,0,4.4Zm0-8.8h2.2a2.2,2.2,0,0,0,0-4.4H14a2.2,2.2,0,1,0,0,4.4Zm4.4,13.2H14a2.2,2.2,0,0,0,0,4.4h4.4a2.2,2.2,0,1,0,0-4.4Z" transform="translate(-3 -2)" fill="#f8c467"/>
</svg>
