<svg xmlns="http://www.w3.org/2000/svg" width="23.805" height="21.92" viewBox="0 0 23.805 21.92">
  <path id="send" d="M35.193,55.474l-.007,0-17.8-7.382a.982.982,0,0,0-.925.09,1.027,1.027,0,0,0-.464.858v4.721a1,1,0,0,0,.813.982l9.706,1.795a.167.167,0,0,1,0,.328l-9.706,1.795a1,1,0,0,0-.814.981V64.36a.982.982,0,0,0,.441.82,1,1,0,0,0,.551.167,1.023,1.023,0,0,0,.4-.08l17.8-7.339.008,0a1.333,1.333,0,0,0,0-2.45Z" transform="matrix(0.966, -0.259, 0.259, 0.966, -27.881, -37.06)" fill="rgba(95,95,95,0.39)"/>
</svg>
