<svg xmlns="http://www.w3.org/2000/svg" width="35.211" height="44" viewBox="0 0 35.211 44">
  <path id="shield-check" d="M38.4,5.629a2.2,2.2,0,0,0-1.849-.44A17.606,17.606,0,0,1,22.86,2.394a2.2,2.2,0,0,0-2.509,0A17.606,17.606,0,0,1,6.663,5.189,2.2,2.2,0,0,0,4,7.346v16.4a19.806,19.806,0,0,0,8.3,16.131l8.033,5.722a2.2,2.2,0,0,0,2.553,0l8.033-5.722a19.806,19.806,0,0,0,8.3-16.131V7.346A2.2,2.2,0,0,0,38.4,5.629ZM34.81,23.741a15.4,15.4,0,0,1-6.448,12.544L21.606,41.1l-6.756-4.82A15.4,15.4,0,0,1,8.4,23.741V9.876a22.007,22.007,0,0,0,13.2-3.059,22.007,22.007,0,0,0,13.2,3.059ZM24.995,18.7l-5.92,5.942-1.959-1.981a2.21,2.21,0,0,0-3.125,3.125l3.521,3.521a2.2,2.2,0,0,0,3.125,0l7.57-7.5a2.21,2.21,0,1,0-3.125-3.125Z" transform="translate(-4 -2.002)" fill="#f8c467"/>
</svg>
