<svg xmlns="http://www.w3.org/2000/svg" width="37.174" height="44" viewBox="0 0 37.174 44">
  <path id="user-location" d="M27.531,21.441a6.757,6.757,0,1,0-10.933,0,10.211,10.211,0,0,0-2.449,2.187,2.252,2.252,0,1,0,3.564,2.755A5.729,5.729,0,0,1,22.2,24.2h0a5.729,5.729,0,0,1,4.482,2.187,2.186,2.186,0,0,0,3.411-2.733,10.211,10.211,0,0,0-2.558-2.208Zm-5.445-1.6h0a2.383,2.383,0,1,1,1.717-.729,2.383,2.383,0,0,1-1.717.729Zm18.5-1.093A18.583,18.583,0,1,0,8.967,33.686L20.556,45.3a2.187,2.187,0,0,0,3.1,0L35.206,33.686A18.5,18.5,0,0,0,40.585,18.751ZM32.145,30.6,22.086,40.661,12.028,30.6A14.191,14.191,0,0,1,7.939,19.189,14.366,14.366,0,0,1,14.258,8.627a14.147,14.147,0,0,1,15.656,0,14.366,14.366,0,0,1,6.319,10.517A14.191,14.191,0,0,1,32.145,30.6Z" transform="translate(-3.5 -1.943)" fill="#f8c467"/>
</svg>
